# xmcd
# 
# Track frame offsets:
#     150
#     12975
#     38073
#     53318
#     74894
#     89022
#     109523
# 
# Disc length: 1638
# 
# Revision: 0
# Processed by: cddbd v1.5.2PL0 Copyright (c) Steve Scherf et al.
# Submitted via: fre:ac v1.0.31
# 
DISCID=56066407
DTITLE=Ben Nichols - The Last Pale Light In the West
DYEAR=0
DGENRE=Country
TTITLE0=The Last Pale Light In the West
TTITLE1=The Kid
TTITLE2=Davy Brown
TTITLE3=Chambers
TTITLE4=Tobin
TTITLE5=Toadvine
TTITLE6=The Judge
EXTD=
EXTT0=
EXTT1=
EXTT2=
EXTT3=
EXTT4=
EXTT5=
EXTT6=
PLAYORDER=
